# xmcd
#
# Track frame offsets: 
#        150
#        14022
#        28268
#        42269
#        57834
#        72473
#        86424
#        102149
#        114147
#        125019
#        139719
#        155662
#        170690
#        187357
#        202865
#
# Disc length: 2902 seconds
#
# Revision: 3
# Processed by: cddbd v1.5.2PL0 Copyright (c) Steve Scherf et al.
# Submitted via: ExactAudioCopyFreeDBPlugin 1.0
#
DISCID=d60b540f
DTITLE=Various Artist - Schlager-Giganten: Das Ist Kult! Vol. 2 (2002)
DYEAR=2005
DGENRE=Schlager
TTITLE0=Wencke Myhre - Er steht im Tor
TTITLE1=Bata Illic - Ich hab' noch Sand in den Schuh'n aus Hawaii
TTITLE2=Milva - Liberta (Freiheit in meiner Sprache)
TTITLE3=Lars - Es war einmal eine Gitarre
TTITLE4=Daliah Lavi - Liebeslied jener Sommernacht
TTITLE5=Tony Holiday - Du hast mich heut' noch nicht geküsst
TTITLE6=Vicky Leandros - Rot ist die Liebe
TTITLE7=Karel Gott - Die Biene Maja
TTITLE8=Rebecca - Ich seh' dich mit meinen Augen
TTITLE9=Chris Roberts - Hab' ich dir heute schon gesagt, daß ich dich 
TTITLE9=liebe
TTITLE10=Ireen Sheer - Thank You
TTITLE11=Ulli Martin - Ich liebe dich
TTITLE12=Elke Best - Träumer
TTITLE13=Graham Bonney - Sonnenschein
TTITLE14=Sabrina - ...und du willst gehn
EXTD=Deutsche Schlager Oldies
EXTT0=
EXTT1=
EXTT2=
EXTT3=
EXTT4=
EXTT5=
EXTT6=
EXTT7=
EXTT8=
EXTT9=
EXTT10=
EXTT11=
EXTT12=
EXTT13=
EXTT14=
PLAYORDER=
